<?xml version="1.0" encoding="UTF-8" standalone="no"?>
<!-- Created with Inkscape (http://www.inkscape.org/) -->

<svg
   xmlns:dc="http://purl.org/dc/elements/1.1/"
   xmlns:cc="http://creativecommons.org/ns#"
   xmlns:rdf="http://www.w3.org/1999/02/22-rdf-syntax-ns#"
   xmlns:svg="http://www.w3.org/2000/svg"
   xmlns="http://www.w3.org/2000/svg"
   xmlns:sodipodi="http://sodipodi.sourceforge.net/DTD/sodipodi-0.dtd"
   xmlns:inkscape="http://www.inkscape.org/namespaces/inkscape"
   width="100mm"
   height="100mm"
   viewBox="0 0 100 100"
   version="1.1"
   id="svg8"
   inkscape:version="0.92.1 r15371"
   sodipodi:docname="drawing-rec.svg">
  <defs
     id="defs2" />
  <sodipodi:namedview
     id="base"
     pagecolor="#ffffff"
     bordercolor="#666666"
     borderopacity="1.0"
     inkscape:pageopacity="0.0"
     inkscape:pageshadow="2"
     inkscape:zoom="0.98994949"
     inkscape:cx="-123.66345"
     inkscape:cy="230.75062"
     inkscape:document-units="px"
     inkscape:current-layer="layer1"
     showgrid="true"
     inkscape:window-width="1600"
     inkscape:window-height="848"
     inkscape:window-x="-8"
     inkscape:window-y="-8"
     inkscape:window-maximized="1">
    <inkscape:grid
       type="xygrid"
       id="grid4485"
       spacingx="9.9999999"
       units="mm"
       spacingy="9.9999999"
       enabled="true" />
  </sodipodi:namedview>
  <metadata
     id="metadata5">
    <rdf:RDF>
      <cc:Work
         rdf:about="">
        <dc:format>image/svg+xml</dc:format>
        <dc:type
           rdf:resource="http://purl.org/dc/dcmitype/StillImage" />
        <dc:title />
      </cc:Work>
    </rdf:RDF>
  </metadata>
  <g
     inkscape:label="Layer 1"
     inkscape:groupmode="layer"
     id="layer1"
     transform="translate(0,-197)">
    <path
       style="opacity:0.30700001;fill:none;fill-opacity:1;stroke:#000000;stroke-width:1.32291663;stroke-linecap:square;stroke-linejoin:miter;stroke-miterlimit:4;stroke-dasharray:none;stroke-dashoffset:49.29409027;stroke-opacity:1;paint-order:markers fill stroke"
       d="m 40.690781,227 a 10,10 0 0 1 -10,10 10,10 0 0 1 -10,-10 10,10 0 0 1 10,-10 10,10 0 0 1 10,10 z"
       id="path4492" />
    <path
       style="opacity:0.30700001;fill:none;fill-opacity:1;stroke:#000000;stroke-width:1.32291663;stroke-linecap:square;stroke-linejoin:miter;stroke-miterlimit:4;stroke-dasharray:none;stroke-dashoffset:49.29409027;stroke-opacity:1;paint-order:markers fill stroke"
       d="m 78.038681,226.84377 a 10,10 0 0 1 -10,10 10,10 0 0 1 -10,-10 10,10 0 0 1 10,-10 10,10 0 0 1 10,10 z"
       id="path4492-7" />
    <path
       style="opacity:0.30700001;fill:none;fill-opacity:1;stroke:#000000;stroke-width:1.32291663;stroke-linecap:square;stroke-linejoin:miter;stroke-miterlimit:4;stroke-dasharray:none;stroke-dashoffset:49.29409027;stroke-opacity:1;paint-order:markers fill stroke"
       d="m 40.974628,261.38733 a 10,10 0 0 1 -10,10 10,10 0 0 1 -10,-10 10,10 0 0 1 10,-10 10,10 0 0 1 10,10 z"
       id="path4492-7-3" />
    <path
       style="opacity:0.30700001;fill:none;fill-opacity:1;stroke:#000000;stroke-width:1.32291663;stroke-linecap:square;stroke-linejoin:miter;stroke-miterlimit:4;stroke-dasharray:none;stroke-dashoffset:49.29409027;stroke-opacity:1;paint-order:markers fill stroke"
       d="m 78.433556,258.9819 a 10,10 0 0 1 -10,10 10,10 0 0 1 -10,-10 10,10 0 0 1 10,-10 10,10 0 0 1 10,10 z"
       id="path4492-7-3-5" />
    <path
       style="opacity:0.30700001;fill:none;fill-opacity:1;stroke:#000000;stroke-width:1.40756035;stroke-linecap:square;stroke-linejoin:miter;stroke-miterlimit:4;stroke-dasharray:none;stroke-dashoffset:49.29409027;stroke-opacity:1;paint-order:markers fill stroke"
       d="M 89.95768,243.79277 A 41.9622,43.164913 0 0 1 47.99548,286.95768 41.9622,43.164913 0 0 1 6.0332794,243.79277 41.9622,43.164913 0 0 1 47.99548,200.62786 a 41.9622,43.164913 0 0 1 41.9622,43.16491 z"
       id="path4488" />
  </g>
</svg>
