<?xml version="1.0" encoding="UTF-8" standalone="no"?>
<!-- Created with Inkscape (http://www.inkscape.org/) -->

<svg
   xmlns:dc="http://purl.org/dc/elements/1.1/"
   xmlns:cc="http://creativecommons.org/ns#"
   xmlns:rdf="http://www.w3.org/1999/02/22-rdf-syntax-ns#"
   xmlns:svg="http://www.w3.org/2000/svg"
   xmlns="http://www.w3.org/2000/svg"
   xmlns:sodipodi="http://sodipodi.sourceforge.net/DTD/sodipodi-0.dtd"
   xmlns:inkscape="http://www.inkscape.org/namespaces/inkscape"
   width="100mm"
   height="100mm"
   viewBox="0 0 100 100"
   version="1.1"
   id="svg8"
   inkscape:version="0.92.1 r15371"
   sodipodi:docname="drawing.svg">
  <defs
     id="defs2" />
  <sodipodi:namedview
     id="base"
     pagecolor="#ffffff"
     bordercolor="#666666"
     borderopacity="1.0"
     inkscape:pageopacity="0.0"
     inkscape:pageshadow="2"
     inkscape:zoom="1"
     inkscape:cx="99.830474"
     inkscape:cy="277.73372"
     inkscape:document-units="px"
     inkscape:current-layer="layer1"
     showgrid="true"
     inkscape:window-width="1600"
     inkscape:window-height="848"
     inkscape:window-x="-8"
     inkscape:window-y="-8"
     inkscape:window-maximized="1">
    <inkscape:grid
       type="xygrid"
       id="grid4485"
       spacingx="9.9999999"
       units="mm"
       spacingy="9.9999999" />
  </sodipodi:namedview>
  <metadata
     id="metadata5">
    <rdf:RDF>
      <cc:Work
         rdf:about="">
        <dc:format>image/svg+xml</dc:format>
        <dc:type
           rdf:resource="http://purl.org/dc/dcmitype/StillImage" />
        <dc:title></dc:title>
      </cc:Work>
    </rdf:RDF>
  </metadata>
  <g
     inkscape:label="Layer 1"
     inkscape:groupmode="layer"
     id="layer1"
     transform="translate(0,-197)">
    <path
       style="opacity:0.30700001;fill:none;fill-opacity:1;stroke:#c6969e;stroke-width:1.32291663;stroke-linecap:square;stroke-linejoin:miter;stroke-miterlimit:4;stroke-dasharray:none;stroke-dashoffset:13.04239464;stroke-opacity:0.81407034;paint-order:markers fill stroke"
       d="M 89.366688,247 A 39.366688,39.631271 0 0 1 50,286.63127 39.366688,39.631271 0 0 1 10.633312,247 39.366688,39.631271 0 0 1 50,207.36873 39.366688,39.631271 0 0 1 89.366688,247 Z"
       id="path4496" />
    <path
       style="opacity:0.30700001;fill:none;fill-opacity:1;stroke:#c6969e;stroke-width:1.32291663;stroke-linecap:square;stroke-linejoin:miter;stroke-miterlimit:4;stroke-dasharray:none;stroke-dashoffset:49.29409027;stroke-opacity:0.81407034;paint-order:markers fill stroke"
       d="M 56.472222,247 A 6.4722223,6.4722223 0 0 1 50,253.47222 6.4722223,6.4722223 0 0 1 43.527778,247 6.4722223,6.4722223 0 0 1 50,240.52778 6.4722223,6.4722223 0 0 1 56.472222,247 Z"
       id="path4534" />
    <path
       style="opacity:0.30700001;fill:none;fill-opacity:1;stroke:#c6969e;stroke-width:1.32291663;stroke-linecap:square;stroke-linejoin:miter;stroke-miterlimit:4;stroke-dasharray:none;stroke-dashoffset:49.29409027;stroke-opacity:0.81407034;paint-order:markers fill stroke"
       d="M 56.472222,226.63333 A 6.4722223,6.4722223 0 0 1 50,233.10555 6.4722223,6.4722223 0 0 1 43.527778,226.63333 6.4722223,6.4722223 0 0 1 50,220.16111 a 6.4722223,6.4722223 0 0 1 6.472222,6.47222 z"
       id="path4534-2" />
    <path
       style="opacity:0.30700001;fill:none;fill-opacity:1;stroke:#c6969e;stroke-width:1.32291663;stroke-linecap:square;stroke-linejoin:miter;stroke-miterlimit:4;stroke-dasharray:none;stroke-dashoffset:49.29409027;stroke-opacity:0.81407034;paint-order:markers fill stroke"
       d="m 57.265973,268.79788 a 6.4722223,6.4722223 0 0 1 -6.472222,6.47222 6.4722223,6.4722223 0 0 1 -6.472223,-6.47222 6.4722223,6.4722223 0 0 1 6.472223,-6.47222 6.4722223,6.4722223 0 0 1 6.472222,6.47222 z"
       id="path4534-2-1" />
    <path
       style="opacity:0.30700001;fill:none;fill-opacity:1;stroke:#c6969e;stroke-width:1.32291663;stroke-linecap:square;stroke-linejoin:miter;stroke-miterlimit:4;stroke-dasharray:none;stroke-dashoffset:49.29409027;stroke-opacity:0.81407034;paint-order:markers fill stroke"
       d="m 78.053468,247.15622 a 6.4722223,6.4722223 0 0 1 -6.472223,6.47222 6.4722223,6.4722223 0 0 1 -6.472222,-6.47222 6.4722223,6.4722223 0 0 1 6.472222,-6.47222 6.4722223,6.4722223 0 0 1 6.472223,6.47222 z"
       id="path4534-2-1-9" />
    <path
       style="opacity:0.30700001;fill:none;fill-opacity:1;stroke:#c6969e;stroke-width:1.32291663;stroke-linecap:square;stroke-linejoin:miter;stroke-miterlimit:4;stroke-dasharray:none;stroke-dashoffset:49.29409027;stroke-opacity:0.81407034;paint-order:markers fill stroke"
       d="m 31.745143,246.57289 a 6.4722223,6.4722223 0 0 1 -6.472222,6.47222 6.4722223,6.4722223 0 0 1 -6.472223,-6.47222 6.4722223,6.4722223 0 0 1 6.472223,-6.47222 6.4722223,6.4722223 0 0 1 6.472222,6.47222 z"
       id="path4534-2-1-9-7" />
  </g>
</svg>
